<svg xmlns="http://www.w3.org/2000/svg" width="31.563" height="22.265" viewBox="0 0 31.563 22.265">
  <path id="Trazado_163" data-name="Trazado 163" d="M32.633,8.929a16.255,16.255,0,0,0-.876-2.659,3.278,3.278,0,0,0,.432-1.628,3.31,3.31,0,1,0-3.57,3.3,7.664,7.664,0,0,1-5.991,1.893,15.847,15.847,0,0,0-.816-1.5A16.034,16.034,0,0,0,19.5,5.406a3.312,3.312,0,1,0-5.164-.061A16.024,16.024,0,0,0,11.2,9.852,7.682,7.682,0,0,1,5.732,8.185c.031-.083.062-.162.094-.24A3.312,3.312,0,1,0,2.787,6.27a16.154,16.154,0,0,0-.874,2.659A16.981,16.981,0,0,0,3.144,19.967a21.2,21.2,0,0,0,.978,1.889l.238.408H30.182l.239-.408a21.2,21.2,0,0,0,.977-1.889A16.988,16.988,0,0,0,32.633,8.929M9.73,18.8H6.42a14.042,14.042,0,0,1-1.465-6.963,11.113,11.113,0,0,0,5.08,1.479A18,18,0,0,0,9.73,18.8m10.958,0H13.211A12.862,12.862,0,0,1,16.887,7.679a13.049,13.049,0,0,1,3.8,11.122m3.48,0a18.083,18.083,0,0,0-.34-5.477,11.171,11.171,0,0,0,5.74-1.764A13.953,13.953,0,0,1,28.124,18.8Z" transform="translate(-1.491)" fill="#e8d641"/>
</svg>
