<svg id="Grupo_373" data-name="Grupo 373" xmlns="http://www.w3.org/2000/svg" xmlns:xlink="http://www.w3.org/1999/xlink" width="280.232" height="66.293" viewBox="0 0 280.232 66.293">
  <defs>
    <clipPath id="clip-path">
      <rect id="Rectángulo_380" data-name="Rectángulo 380" width="280.232" height="66.293" fill="none"/>
    </clipPath>
  </defs>
  <g id="Grupo_369" data-name="Grupo 369" clip-path="url(#clip-path)">
    <path id="Trazado_101" data-name="Trazado 101" d="M28.617,42.4C32.063,40.279,34,37.189,34,33.5c0-7.2-5.386-11.975-13.494-11.975H5.93A5.93,5.93,0,0,0,0,27.456V57.52H4.714a5.931,5.931,0,0,0,5.932-5.931V47.657H19.9c3.387,0,5.748,2,5.748,4.9,0,2.966-2.361,4.964-5.866,4.964H16.577a5.931,5.931,0,0,0-5.931,5.932v2.841H20.39c9.74,0,16.21-5.326,16.21-13.31,0-4.905-3.025-8.713-7.983-10.587M17.906,38.885h-7.26V30.3h7.443c2.966,0,4.959,1.69,4.959,4.294S21,38.885,17.906,38.885" fill="#4eaa03"/>
    <path id="Trazado_102" data-name="Trazado 102" d="M63.713,55.146H48.223c.5,2.8,2,4.5,5.248,4.5a7.165,7.165,0,0,0,3.987-1.15,3.974,3.974,0,0,1,3.9-.189l4.2,2.039a14.112,14.112,0,0,1-12,5.948c-8.6,0-14.345-5.5-14.345-13.846,0-8.6,5.548-14.4,13.945-14.4,8.347,0,13.945,5.448,13.945,13.7v.035a3.392,3.392,0,0,1-3.4,3.364m-15.44-5.7H58.22c-.551-3.1-2.2-4.749-5.049-4.749-2.8,0-4.349,1.7-4.9,4.749" fill="#4eaa03"/>
    <path id="Trazado_103" data-name="Trazado 103" d="M97.094,49.3V66.293H92.677a4.081,4.081,0,0,1-4.08-4.081V50.5c0-2.849-2.049-4.7-5.148-4.7-3.149,0-5.2,1.85-5.2,4.7V62.212a4.081,4.081,0,0,1-4.08,4.081H69.753V43.132a4.081,4.081,0,0,1,4.08-4.081H77.95l.1,3.05A11.117,11.117,0,0,1,86.7,38.554a10.7,10.7,0,0,1,10.4,10.75" fill="#4eaa03"/>
    <path id="Trazado_104" data-name="Trazado 104" d="M124.842,55.146H109.351c.5,2.8,2,4.5,5.249,4.5a7.165,7.165,0,0,0,3.987-1.15,3.974,3.974,0,0,1,3.9-.189l4.2,2.039a14.112,14.112,0,0,1-12,5.948c-8.6,0-14.345-5.5-14.345-13.846,0-8.6,5.548-14.4,13.945-14.4,8.347,0,13.946,5.448,13.946,13.7v.035a3.392,3.392,0,0,1-3.4,3.364m-15.44-5.7h9.946c-.55-3.1-2.2-4.749-5.048-4.749-2.8,0-4.349,1.7-4.9,4.749" fill="#4eaa03"/>
    <path id="Trazado_105" data-name="Trazado 105" d="M143.329,37.152v1.9h6.148V46h-6.148V62.213a4.08,4.08,0,0,1-4.08,4.08h-4.417V46h-4.249V39.051h4.249v-3.2c0-5.449,3.7-9.047,9.247-9.047a16.046,16.046,0,0,1,6.247,1.1l-.549,6.6a7.842,7.842,0,0,0-2.9-.45c-2.1,0-3.549,1.25-3.549,3.1" fill="#4eaa03"/>
    <path id="Trazado_106" data-name="Trazado 106" d="M163.312,28.422h6.645l-9.547,8.347h-7.2l4.858-5.878a6.8,6.8,0,0,1,5.242-2.469m-11.069,10.63h8.5V62.213a4.08,4.08,0,0,1-4.08,4.08h-4.417Z" fill="#4eaa03"/>
    <path id="Trazado_107" data-name="Trazado 107" d="M163.42,52.147c0-8.447,6-14.1,15.044-14.1a15.487,15.487,0,0,1,9.547,3.25l-2.612,3.13a4.122,4.122,0,0,1-4.51,1.222,7.038,7.038,0,0,0-2.274-.354c-3.849,0-6.348,2.75-6.348,6.848s2.449,6.848,6.348,6.848a8.558,8.558,0,0,0,3.124-.518,4.161,4.161,0,0,1,4.733,1.1l2.44,2.87c-2.65,2.6-6.448,3.849-10.647,3.849-8.9,0-14.845-5.648-14.845-14.146" fill="#4eaa03"/>
    <path id="Trazado_108" data-name="Trazado 108" d="M189.906,31a4.924,4.924,0,0,1,9.847,0,4.924,4.924,0,0,1-9.847,0m.65,8.048h4.417a4.079,4.079,0,0,1,4.08,4.08V66.293h-4.417a4.08,4.08,0,0,1-4.08-4.08Z" fill="#4eaa03"/>
    <path id="Trazado_109" data-name="Trazado 109" d="M226.9,48.7V65.793h-5.1a3.2,3.2,0,0,1-3.2-3.1,9.255,9.255,0,0,1-7.4,3.6c-5.8,0-9.647-3.5-9.647-8.748,0-5.348,4.7-8.9,11.8-8.9a26.145,26.145,0,0,1,5.049.5c-.1-2.9-2.15-4.448-5.748-4.448a10.582,10.582,0,0,0-3.162.449,4.146,4.146,0,0,1-4.634-1.475l-1.6-2.224c3.1-2.248,6.648-3.4,11.6-3.4,7.2,0,12.046,4.2,12.046,10.646m-8.5,6.148a22.977,22.977,0,0,0-3.949-.4c-2.5,0-4.1,1.2-4.1,2.95s1,2.848,3.3,2.848c2.55,0,4.7-2,4.749-5.4" fill="#4eaa03"/>
    <path id="Trazado_110" data-name="Trazado 110" d="M249.844,63.07v1.873a18.113,18.113,0,0,1-7.1,1.35c-5.3,0-8.9-3.649-8.9-9.1V45.5H229.5V38.551h4.349v-8h4.417a4.08,4.08,0,0,1,4.08,4.08v3.917h3.018a4.081,4.081,0,0,1,4.08,4.08V45.5h-7.1v9.9c0,2.149,1.3,3.6,3.149,3.6h.166a4.094,4.094,0,0,1,4.183,4.076" fill="#4eaa03"/>
    <path id="Trazado_111" data-name="Trazado 111" d="M276.828,55.146h-15.49c.5,2.8,2,4.5,5.248,4.5a7.165,7.165,0,0,0,3.987-1.15,3.974,3.974,0,0,1,3.9-.189l4.2,2.039a14.112,14.112,0,0,1-12,5.948c-8.6,0-14.345-5.5-14.345-13.846,0-8.6,5.548-14.4,13.945-14.4,8.347,0,13.946,5.448,13.946,13.7v.035a3.392,3.392,0,0,1-3.4,3.364m-15.44-5.7h9.947c-.551-3.1-2.2-4.749-5.049-4.749-2.8,0-4.349,1.7-4.9,4.749" fill="#4eaa03"/>
    <path id="Trazado_112" data-name="Trazado 112" d="M28.426,7.723a14.059,14.059,0,0,0-.758-2.3,2.835,2.835,0,0,0,.374-1.408,2.863,2.863,0,1,0-3.088,2.851A6.629,6.629,0,0,1,19.772,8.5a13.707,13.707,0,0,0-.706-1.3,13.868,13.868,0,0,0-2-2.53A2.864,2.864,0,1,0,12.6,4.623a13.859,13.859,0,0,0-2.717,3.9A6.644,6.644,0,0,1,5.159,7.079c.027-.072.054-.14.081-.208A2.865,2.865,0,1,0,2.612,5.423a13.972,13.972,0,0,0-.756,2.3A14.687,14.687,0,0,0,2.921,17.27,18.335,18.335,0,0,0,3.767,18.9l.206.353H26.306l.207-.353a18.334,18.334,0,0,0,.845-1.634,14.693,14.693,0,0,0,1.068-9.547M8.617,16.262H5.754A12.145,12.145,0,0,1,4.487,10.24a9.612,9.612,0,0,0,4.394,1.279,15.564,15.564,0,0,0-.264,4.743m9.478,0H11.628a11.125,11.125,0,0,1,3.179-9.62,11.287,11.287,0,0,1,3.288,9.62m3.01,0a15.64,15.64,0,0,0-.294-4.737A9.662,9.662,0,0,0,25.776,10a12.068,12.068,0,0,1-1.25,6.263Z" fill="#e8d641"/>
  </g>
</svg>
