<svg xmlns="http://www.w3.org/2000/svg" xmlns:xlink="http://www.w3.org/1999/xlink" width="170" height="40.216" viewBox="0 0 170 40.216">
  <defs>
    <clipPath id="clip-path">
      <rect id="Rectángulo_784" data-name="Rectángulo 784" width="170" height="40.216" fill="none"/>
    </clipPath>
  </defs>
  <g id="Grupo_784" data-name="Grupo 784" clip-path="url(#clip-path)">
    <path id="Trazado_200" data-name="Trazado 200" d="M17.36,34.186a6.236,6.236,0,0,0,3.267-5.4c0-4.368-3.267-7.265-8.186-7.265H3.6a3.6,3.6,0,0,0-3.6,3.6V43.361H2.86a3.6,3.6,0,0,0,3.6-3.6V37.378h5.616c2.055,0,3.487,1.213,3.487,2.972,0,1.8-1.432,3.011-3.559,3.011H10.056a3.6,3.6,0,0,0-3.6,3.6v1.723h5.911c5.909,0,9.834-3.231,9.834-8.074,0-2.976-1.835-5.286-4.843-6.423m-6.5-2.13h-4.4v-5.21h4.515c1.8,0,3.008,1.025,3.008,2.6s-1.245,2.6-3.119,2.6" transform="translate(0 -8.467)" fill="#fff"/>
    <path id="Trazado_201" data-name="Trazado 201" d="M54.081,48.422h-9.4a2.912,2.912,0,0,0,3.184,2.729,4.347,4.347,0,0,0,2.419-.7,2.411,2.411,0,0,1,2.369-.115l2.55,1.237a8.561,8.561,0,0,1-7.277,3.608c-5.216,0-8.7-3.336-8.7-8.4,0-5.216,3.366-8.733,8.46-8.733,5.064,0,8.46,3.3,8.46,8.308v.021a2.057,2.057,0,0,1-2.064,2.041m-9.367-3.457h6.034c-.334-1.88-1.335-2.881-3.063-2.881-1.7,0-2.638,1.031-2.971,2.881" transform="translate(-15.43 -14.968)" fill="#fff"/>
    <path id="Trazado_202" data-name="Trazado 202" d="M86.339,45.074V55.381H83.66A2.475,2.475,0,0,1,81.185,52.9V45.8a2.817,2.817,0,0,0-3.123-2.851c-1.91,0-3.154,1.122-3.154,2.851V52.9a2.475,2.475,0,0,1-2.475,2.476h-2.68V41.33a2.476,2.476,0,0,1,2.475-2.476h2.5l.061,1.85a6.744,6.744,0,0,1,5.246-2.152,6.49,6.49,0,0,1,6.306,6.521" transform="translate(-27.438 -15.165)" fill="#fff"/>
    <path id="Trazado_203" data-name="Trazado 203" d="M115.21,48.422h-9.4A2.913,2.913,0,0,0,109,51.151a4.347,4.347,0,0,0,2.419-.7,2.411,2.411,0,0,1,2.369-.115l2.55,1.237a8.561,8.561,0,0,1-7.277,3.608c-5.216,0-8.7-3.336-8.7-8.4,0-5.216,3.366-8.733,8.46-8.733,5.064,0,8.46,3.3,8.46,8.308v.021a2.058,2.058,0,0,1-2.065,2.041m-9.367-3.457h6.034c-.334-1.88-1.334-2.881-3.062-2.881-1.7,0-2.638,1.031-2.971,2.881" transform="translate(-39.476 -14.968)" fill="#fff"/>
    <path id="Trazado_204" data-name="Trazado 204" d="M138.315,33.082v1.152h3.73v4.215h-3.73v9.836a2.475,2.475,0,0,1-2.475,2.475h-2.68V38.449h-2.578V34.234h2.578v-1.94a5.237,5.237,0,0,1,5.61-5.488,9.734,9.734,0,0,1,3.79.667l-.333,4a4.757,4.757,0,0,0-1.759-.273,1.93,1.93,0,0,0-2.153,1.88" transform="translate(-51.366 -10.544)" fill="#fff"/>
    <path id="Trazado_205" data-name="Trazado 205" d="M158.958,28.422h4.031L157.2,33.486h-4.367l2.947-3.566a4.126,4.126,0,0,1,3.18-1.5m-6.715,6.449H157.4v14.05a2.475,2.475,0,0,1-2.475,2.475h-2.68Z" transform="translate(-59.886 -11.18)" fill="#fff"/>
    <path id="Trazado_206" data-name="Trazado 206" d="M163.42,46.6c0-5.124,3.638-8.551,9.126-8.551a9.4,9.4,0,0,1,5.792,1.972l-1.585,1.9a2.5,2.5,0,0,1-2.736.741,4.27,4.27,0,0,0-1.379-.215c-2.335,0-3.851,1.668-3.851,4.154s1.486,4.154,3.851,4.154a5.192,5.192,0,0,0,1.9-.314,2.524,2.524,0,0,1,2.871.665l1.48,1.741a9.051,9.051,0,0,1-6.459,2.335c-5.4,0-9.006-3.426-9.006-8.582" transform="translate(-64.283 -14.968)" fill="#fff"/>
    <path id="Trazado_207" data-name="Trazado 207" d="M189.906,29.077a2.987,2.987,0,1,1,3,2.971,2.891,2.891,0,0,1-3-2.971m.394,4.882h2.68a2.475,2.475,0,0,1,2.475,2.475v14.05h-2.68A2.475,2.475,0,0,1,190.3,48.01Z" transform="translate(-74.701 -10.269)" fill="#fff"/>
    <path id="Trazado_208" data-name="Trazado 208" d="M216.933,44.51V54.881h-3.091A1.943,1.943,0,0,1,211.9,53a5.614,5.614,0,0,1-4.488,2.183c-3.517,0-5.852-2.123-5.852-5.307,0-3.244,2.851-5.4,7.156-5.4a15.86,15.86,0,0,1,3.063.3c-.061-1.759-1.3-2.7-3.487-2.7a6.419,6.419,0,0,0-1.918.272,2.515,2.515,0,0,1-2.811-.895l-.972-1.349a11.282,11.282,0,0,1,7.035-2.061c4.367,0,7.308,2.547,7.308,6.458m-5.155,3.73a13.939,13.939,0,0,0-2.4-.243c-1.516,0-2.487.728-2.487,1.79s.607,1.728,2,1.728c1.547,0,2.851-1.213,2.881-3.275" transform="translate(-79.286 -14.968)" fill="#fff"/>
    <path id="Trazado_209" data-name="Trazado 209" d="M241.841,50.28v1.136a10.988,10.988,0,0,1-4.306.819,5.173,5.173,0,0,1-5.4-5.519v-7.1H229.5V35.405h2.638V30.554h2.68a2.475,2.475,0,0,1,2.475,2.475v2.376h1.831A2.476,2.476,0,0,1,241.6,37.88v1.74h-4.306v6a1.963,1.963,0,0,0,1.91,2.183h.1a2.484,2.484,0,0,1,2.538,2.473" transform="translate(-90.276 -12.019)" fill="#fff"/>
    <path id="Trazado_210" data-name="Trazado 210" d="M267.2,48.422h-9.4a2.912,2.912,0,0,0,3.184,2.729,4.347,4.347,0,0,0,2.419-.7,2.411,2.411,0,0,1,2.369-.115l2.55,1.237a8.561,8.561,0,0,1-7.277,3.608c-5.216,0-8.7-3.336-8.7-8.4,0-5.216,3.366-8.733,8.46-8.733,5.064,0,8.46,3.3,8.46,8.308v.021a2.058,2.058,0,0,1-2.065,2.041m-9.367-3.457h6.034c-.334-1.88-1.335-2.881-3.063-2.881-1.7,0-2.638,1.031-2.971,2.881" transform="translate(-99.261 -14.968)" fill="#fff"/>
    <path id="Trazado_211" data-name="Trazado 211" d="M17.831,4.685a8.529,8.529,0,0,0-.46-1.4,1.72,1.72,0,0,0,.227-.854,1.737,1.737,0,1,0-1.873,1.73,4.021,4.021,0,0,1-3.144.993,8.315,8.315,0,0,0-.428-.787,8.413,8.413,0,0,0-1.211-1.535A1.738,1.738,0,1,0,8.232,2.8,8.407,8.407,0,0,0,6.584,5.169a4.031,4.031,0,0,1-2.868-.875c.016-.044.033-.085.049-.126A1.738,1.738,0,1,0,2.171,3.29a8.476,8.476,0,0,0-.459,1.4,8.91,8.91,0,0,0,.646,5.792,11.123,11.123,0,0,0,.513.991L3,11.682H16.545l.126-.214a11.121,11.121,0,0,0,.513-.991,8.913,8.913,0,0,0,.648-5.792M5.814,9.865H4.077a7.368,7.368,0,0,1-.769-3.653,5.831,5.831,0,0,0,2.666.776,9.442,9.442,0,0,0-.16,2.877m5.75,0H7.641A6.749,6.749,0,0,1,9.569,4.029a6.847,6.847,0,0,1,1.995,5.836m1.826,0a9.488,9.488,0,0,0-.178-2.874,5.861,5.861,0,0,0,3.012-.926,7.321,7.321,0,0,1-.758,3.8Z" transform="translate(-0.586)" fill="#e8d641"/>
  </g>
</svg>
